{
	"scenes":[{
		"nodes":[0]
	}],
	"asset":{
		"version":"2.0",
		"generator":"Created using the official Cinema 4D glTF Exporter 1.000x284978"
	},
	"nodes":[{
		"name":"空白",
		"translation":[-12.57510757446289,
		49.92918014526367,
		78.2372817993164],
		"rotation":[0.638547420501709,
		-0.6675150990486145,
		-0.06521708518266678,
		0.3773956596851349],
		"scale":[1.0,
		1.0,
		1.0],
		"children":[1,
		2,
		3,
		4]
	},
	{
		"name":"44101P300010_3",
		"translation":[27.408498764038087,
		-27.932592391967775,
		-10.04394245147705],
		"rotation":[0.700751006603241,
		0.09459423273801804,
		0.09459423273801804,
		-0.700751006603241],
		"scale":[1.0,
		1.0,
		1.0],
		"mesh":0
	},
	{
		"name":"轮胎",
		"translation":[27.408498764038087,
		-27.932592391967775,
		-10.04394245147705],
		"rotation":[0.5623939633369446,
		0.5623939633369446,
		-0.42861753702163699,
		-0.42861753702163699],
		"scale":[1.0,
		1.0,
		1.0],
		"mesh":1
	},
	{
		"name":"0300071100000_3.2",
		"translation":[27.408498764038087,
		-31.811649322509767,
		-10.04394245147705],
		"rotation":[0.5623939633369446,
		0.5623939633369446,
		-0.42861753702163699,
		-0.42861753702163699],
		"scale":[1.0,
		1.0,
		1.0],
		"mesh":2
	},
	{
		"name":"0300071100000_3.1",
		"translation":[27.408498764038087,
		-24.05353546142578,
		-10.04394245147705],
		"rotation":[0.5623939633369446,
		0.5623939633369446,
		-0.42861753702163699,
		-0.42861753702163699],
		"scale":[1.0,
		1.0,
		1.0],
		"mesh":3
	}],
	"meshes":[{
		"name":"44101P300010_3",
		"primitives":[{
			"attributes":{
				"POSITION":1,
				"NORMAL":2,
				"TEXCOORD_0":3
			},
			"indices":0,
			"material":0
		}]
	},
	{
		"name":"轮胎",
		"primitives":[{
			"attributes":{
				"POSITION":5,
				"NORMAL":6,
				"TEXCOORD_0":7
			},
			"indices":4,
			"material":1
		}]
	},
	{
		"name":"0300071100000_3.2",
		"primitives":[{
			"attributes":{
				"POSITION":9,
				"NORMAL":10,
				"TEXCOORD_0":11
			},
			"indices":8,
			"material":2
		}]
	},
	{
		"name":"0300071100000_3.1",
		"primitives":[{
			"attributes":{
				"POSITION":13,
				"NORMAL":14,
				"TEXCOORD_0":15
			},
			"indices":12,
			"material":2
		}]
	}],
	"accessors":[{
		"bufferView":0,
		"type":"SCALAR",
		"componentType":5123,
		"byteOffset":0,
		"count":189726,
		"min":[0],
		"max":[55158]
	},
	{
		"bufferView":1,
		"type":"VEC3",
		"componentType":5126,
		"byteOffset":0,
		"count":55159,
		"min":[-16.529428482055665,
		-16.529428482055665,
		-4.76216459274292],
		"max":[16.529428482055665,
		16.529428482055665,
		4.76216459274292]
	},
	{
		"bufferView":1,
		"type":"VEC3",
		"componentType":5126,
		"byteOffset":12,
		"count":55159,
		"min":[-1.0,
		-0.9999688267707825,
		-0.9999688267707825],
		"max":[1.0,
		0.9999688267707825,
		0.9999688267707825]
	},
	{
		"bufferView":1,
		"type":"VEC2",
		"componentType":5126,
		"byteOffset":24,
		"count":55159,
		"min":[-0.8258332014083862,
		-0.002569732256233692],
		"max":[1.0436768531799317,
		1.0239009857177735]
	},
	{
		"bufferView":2,
		"type":"SCALAR",
		"componentType":5123,
		"byteOffset":0,
		"count":43680,
		"min":[0],
		"max":[8100]
	},
	{
		"bufferView":3,
		"type":"VEC3",
		"componentType":5126,
		"byteOffset":0,
		"count":8101,
		"min":[-4.3683013916015629,
		-21.482261657714845,
		-21.482261657714845],
		"max":[4.3683013916015629,
		21.482261657714845,
		21.482261657714845]
	},
	{
		"bufferView":3,
		"type":"VEC3",
		"componentType":5126,
		"byteOffset":12,
		"count":8101,
		"min":[-0.9999688267707825,
		-0.9998750686645508,
		-0.9998750686645508],
		"max":[0.9999688267707825,
		0.9998750686645508,
		0.9998750686645508]
	},
	{
		"bufferView":3,
		"type":"VEC2",
		"componentType":5126,
		"byteOffset":24,
		"count":8101,
		"min":[0.0024048862978816034,
		0.001668215962126851],
		"max":[0.9950248599052429,
		0.9950248003005981]
	},
	{
		"bufferView":4,
		"type":"SCALAR",
		"componentType":5123,
		"byteOffset":0,
		"count":774,
		"min":[0],
		"max":[257]
	},
	{
		"bufferView":5,
		"type":"VEC3",
		"componentType":5126,
		"byteOffset":0,
		"count":258,
		"min":[-0.48924434185028078,
		-17.52185821533203,
		-17.51953887939453],
		"max":[0.48924434185028078,
		17.52185821533203,
		17.51953887939453]
	},
	{
		"bufferView":5,
		"type":"VEC3",
		"componentType":5126,
		"byteOffset":12,
		"count":258,
		"min":[-0.7689687609672546,
		-0.6390625238418579,
		-0.6388750076293945],
		"max":[-0.7688437700271606,
		0.6389375329017639,
		0.6388750076293945]
	},
	{
		"bufferView":5,
		"type":"VEC2",
		"componentType":5126,
		"byteOffset":24,
		"count":258,
		"min":[-1.1102230246251566e-16,
		-4.440892098500626e-16],
		"max":[1.0,
		1.0]
	},
	{
		"bufferView":6,
		"type":"SCALAR",
		"componentType":5123,
		"byteOffset":0,
		"count":666,
		"min":[0],
		"max":[221]
	},
	{
		"bufferView":7,
		"type":"VEC3",
		"componentType":5126,
		"byteOffset":0,
		"count":222,
		"min":[-0.48924434185028078,
		-17.526201248168947,
		-17.523962020874025],
		"max":[0.48924434185028078,
		17.526201248168947,
		17.523962020874025]
	},
	{
		"bufferView":7,
		"type":"VEC3",
		"componentType":5126,
		"byteOffset":12,
		"count":222,
		"min":[0.7688750624656677,
		-0.6389375329017639,
		-0.6388750076293945],
		"max":[0.7689687609672546,
		0.6390625238418579,
		0.6388750076293945]
	},
	{
		"bufferView":7,
		"type":"VEC2",
		"componentType":5126,
		"byteOffset":24,
		"count":222,
		"min":[5.551115123125783e-17,
		0.0],
		"max":[1.0,
		1.0]
	}],
	"bufferViews":[{
		"byteOffset":0,
		"buffer":0,
		"byteLength":379452,
		"target":34963
	},
	{
		"byteOffset":379452,
		"buffer":0,
		"byteLength":1765088,
		"target":34962,
		"byteStride":32
	},
	{
		"byteOffset":0,
		"buffer":1,
		"byteLength":87360,
		"target":34963
	},
	{
		"byteOffset":87360,
		"buffer":1,
		"byteLength":259232,
		"target":34962,
		"byteStride":32
	},
	{
		"byteOffset":0,
		"buffer":2,
		"byteLength":1548,
		"target":34963
	},
	{
		"byteOffset":1548,
		"buffer":2,
		"byteLength":8256,
		"target":34962,
		"byteStride":32
	},
	{
		"byteOffset":0,
		"buffer":3,
		"byteLength":1332,
		"target":34963
	},
	{
		"byteOffset":1332,
		"buffer":3,
		"byteLength":7104,
		"target":34962,
		"byteStride":32
	}],
	"buffers":[{
		"uri":"data:application/octet-stream;base64,",
		"byteLength":2144540
	},
	{
		"uri":"data:application/octet-stream;base64,",
		"byteLength":346592
	},
	{
		"uri":"data:application/octet-stream;base64,",
		"byteLength":9804
	},
	{
		"uri":"data:application/octet-stream;base64,",
		"byteLength":8436
	}],
	"materials":[{
		"pbrMetallicRoughness":{
			"baseColorFactor":[0.01,
			0.01,
			0.01,
			1.0],
			"metallicFactor":0.05,
			"roughnessFactor":0.06
		},
		"emissiveFactor":[0.0,
		0.0,
		0.0],
		"alphaMode":"OPAQUE",
		"doubleSided":true,
		"name":"轮胎后轮"
	},
	{
		"pbrMetallicRoughness":{
			"baseColorFactor":[0.1523625,
			0.14177999999999997,
			0.17,
			1.0],
			"metallicFactor":0.0,
			"roughnessFactor":0.38
		},
		"emissiveFactor":[0.0,
		0.0,
		0.0],
		"alphaMode":"OPAQUE",
		"doubleSided":true,
		"name":"轮胎"
	},
	{
		"pbrMetallicRoughness":{
			"baseColorFactor":[0.0,
			0.0,
			0.0,
			1.0],
			"metallicFactor":0.0,
			"roughnessFactor":0.16
		},
		"emissiveFactor":[0.0,
		0.0,
		0.0],
		"alphaMode":"OPAQUE",
		"doubleSided":true,
		"name":"轮胎"
	}]
}